<svg width="32" height="32" viewBox="0 0 32 32" fill="none" xmlns="http://www.w3.org/2000/svg">
<g clip-path="url(#clip0_32_2)">
<path d="M16 31.4375C24.5259 31.4375 31.4375 24.5259 31.4375 16C31.4375 7.4741 24.5259 0.5625 16 0.5625C7.4741 0.5625 0.5625 7.4741 0.5625 16C0.5625 24.5259 7.4741 31.4375 16 31.4375Z" fill="#0B1222"/>
<path d="M15.2429 9.36875C16.0281 9.36875 16.6449 8.75194 16.6449 7.96688C16.6449 7.18175 16.0281 6.56494 15.2429 6.56494C14.4579 6.56494 13.8411 7.18175 13.8411 7.96688C13.8411 8.72388 14.4579 9.36875 15.2429 9.36875ZM9.01843 22.1263C8.56981 22.4908 8.3455 22.9674 8.3455 23.5282C8.3455 24.117 8.54175 24.5656 8.96237 24.9301C9.38293 25.2666 9.91562 25.4348 10.5325 25.4348C11.4577 25.4348 12.3831 25.0143 13.2802 24.1731C14.542 25.0143 15.7757 25.4348 16.9814 25.4348C18.2151 25.4348 19.3366 24.9862 20.4021 24.089C21.4675 23.1918 22.2806 22.0702 22.8134 20.7244C23.3741 19.3785 23.6545 18.0888 23.6545 16.8551C23.6545 15.5933 23.4862 14.5839 23.1217 13.7989C22.7853 12.9858 22.2806 12.3689 21.6357 11.8923C20.3459 10.995 18.7477 10.5464 16.8131 10.5464C14.5139 10.5464 12.6074 11.0791 11.0652 12.1726C9.52312 13.2381 8.76606 14.5839 8.76606 16.1821C8.76606 17.0513 8.99037 17.7523 9.439 18.257C9.88762 18.7617 10.3923 19.0701 10.9251 19.1542C11.2054 18.6215 11.3456 18.1168 11.3736 17.6121C10.9811 17.4719 10.6727 17.3037 10.4484 17.0794C10.2241 16.8551 10.1119 16.4906 10.1119 16.0419C10.1119 14.9204 10.7287 13.9391 11.9905 13.0979C13.2522 12.2568 14.6261 11.8362 16.1121 11.8362C17.5982 11.8362 18.7197 12.1726 19.4767 12.8736C20.2338 13.5746 20.5983 14.612 20.5983 16.0419C20.5983 17.4439 20.2899 19.0421 19.7011 20.7804C19.4207 21.6216 19.0281 22.3506 18.5234 22.9114C18.0187 23.4721 17.458 23.7525 16.8411 23.7525C16.2243 23.7525 15.4112 23.5002 14.4299 22.9955C15.2991 21.8179 16 20.3879 16.5327 18.7056C17.0654 17.0233 17.3459 15.4251 17.3459 13.911C17.3459 13.4624 17.3178 13.154 17.2337 12.9858L16.3926 12.9016C15.3551 12.9016 14.4299 13.0979 13.6447 13.5185V13.7148C13.9532 13.9951 14.0934 14.3877 14.0934 14.8924C14.0934 15.3971 13.9812 16.3223 13.7569 17.5841C13.5326 18.8458 13.3083 19.8552 13.0559 20.6403C12.8036 21.3973 12.6634 21.8739 12.5793 22.0422C11.9064 21.7338 11.2896 21.5936 10.6727 21.5936C9.99975 21.5936 9.46706 21.7618 9.01843 22.1263ZM11.7942 23.2198C11.4017 23.6684 10.9531 23.8927 10.4484 23.8927C10.1961 23.8927 9.99975 23.8366 9.85956 23.7245C9.71937 23.6123 9.66331 23.4721 9.66331 23.3319C9.66331 22.9674 9.97175 22.7992 10.5886 22.7992C10.897 22.7992 11.2896 22.9394 11.7942 23.2198Z" fill="#E0E4F8"/>
</g>
<defs>
<clipPath id="clip0_32_2">
<rect width="32" height="32" fill="white"/>
</clipPath>
</defs>
</svg>
